<svg xmlns="http://www.w3.org/2000/svg" version="1.1" xmlns:xlink="http://www.w3.org/1999/xlink" xmlns:svgjs="http://svgjs.com/svgjs" width="1440" height="560" preserveAspectRatio="none" viewBox="0 0 1440 560"><g mask="url(&quot;#SvgjsMask1000&quot;)" fill="none"><rect width="1440" height="560" x="0" y="0" fill="#0e2a47"></rect><path d="M1302.99 350.4 a32.31 32.31 0 1 0 64.62 0 a32.31 32.31 0 1 0 -64.62 0z" stroke="#e73635"></path><path d="M902.31 39.62L919.24 39.62L919.24 62.67L902.31 62.67z" fill="#e73635"></path><path d="M659.27 119.14L681 119.14L681 140.87L659.27 140.87z" stroke="#e73635"></path><path d="M755.21 314.27a42.34 42.34 0 1 0-65.12 54.13z" fill="#d3b714"></path><path d="M703.25 523.14a8.6 8.6 0 1 0-4.39 16.64z" stroke="#e73635"></path><path d="M544.3 417.86a30.02 30.02 0 1 0-51.18-31.4z" fill="#d3b714"></path><path d="M351.9 519.15 a24.26 24.26 0 1 0 48.52 0 a24.26 24.26 0 1 0 -48.52 0z" fill="#037b0b"></path><path d="M871.26 170.85 a42.5 42.5 0 1 0 85 0 a42.5 42.5 0 1 0 -85 0z" stroke="#037b0b"></path><path d="M401.25 98.41L441.28 98.41L441.28 138.44L401.25 138.44z" fill="#037b0b"></path><path d="M783.87 23.13L812.42 23.13L812.42 67.61L783.87 67.61z" stroke="#d3b714"></path><path d="M1289.2 465.15 a18.89 18.89 0 1 0 37.78 0 a18.89 18.89 0 1 0 -37.78 0z" stroke="#037b0b"></path><path d="M1414.58 514.93L1443.85 514.93L1443.85 544.2L1414.58 544.2z" stroke="#037b0b"></path><path d="M622.16 173.92a13.17 13.17 0 1 0-26.13-3.34z" fill="#e73635"></path><path d="M66.63 242.07a21.89 21.89 0 1 0-42.53 10.41z" fill="#d3b714"></path><path d="M1190.06 265.72 a23.08 23.08 0 1 0 46.16 0 a23.08 23.08 0 1 0 -46.16 0z" fill="#e73635"></path><path d="M1131.29 377.15L1173.7 377.15L1173.7 379.77L1131.29 379.77z" fill="#d3b714"></path><path d="M547.94 483.3L554.53 483.3L554.53 489.89L547.94 489.89z" fill="#d3b714"></path><path d="M1431.45 113.66L1453.16 113.66L1453.16 121.08L1431.45 121.08z" stroke="#037b0b"></path><path d="M57.24 517.65a41.31 41.31 0 1 0 48.01 67.24z" stroke="#037b0b"></path><path d="M219.43 119.07 a20.58 20.58 0 1 0 41.16 0 a20.58 20.58 0 1 0 -41.16 0z" fill="#d3b714"></path><path d="M989.15 123.07a18.99 18.99 0 1 0-6.68-37.39z" stroke="#037b0b"></path><path d="M1305.11 311.6 a49.68 49.68 0 1 0 99.36 0 a49.68 49.68 0 1 0 -99.36 0z" stroke="#037b0b"></path><path d="M719.39 36.13a10.87 10.87 0 1 0 21.58 2.6z" fill="#e73635"></path><path d="M1263.28 349.78a43.49 43.49 0 1 0-17.49-85.2z" fill="#e73635"></path><path d="M130.93 126.95 a48.99 48.99 0 1 0 97.98 0 a48.99 48.99 0 1 0 -97.98 0z" fill="#e73635"></path><path d="M831.22 386.96L862.07 386.96L862.07 417.81L831.22 417.81z" stroke="#e73635"></path><path d="M622.53 226.63L668.43 226.63L668.43 272.53L622.53 272.53z" stroke="#d3b714"></path><path d="M223.41 267.97a17.49 17.49 0 1 0-14.94-31.62z" stroke="#037b0b"></path><path d="M267.06 443.82L306.65 443.82L306.65 483.41L267.06 483.41z" fill="#d3b714"></path><path d="M652.18 273.63L662.6 273.63L662.6 284.05L652.18 284.05z" stroke="#037b0b"></path><path d="M281.95 332.93a4.09 4.09 0 1 0 1.49-8.04z" stroke="#e73635"></path><path d="M46.3 106.34 a45.33 45.33 0 1 0 90.66 0 a45.33 45.33 0 1 0 -90.66 0z" stroke="#e73635"></path><path d="M1114.96 378.28 a47.56 47.56 0 1 0 95.12 0 a47.56 47.56 0 1 0 -95.12 0z" fill="#037b0b"></path></g><defs><mask id="SvgjsMask1000"><rect width="1440" height="560" fill="#ffffff"></rect></mask></defs></svg>